<svg width="104" height="23" viewBox="0 0 104 23" fill="none" xmlns="http://www.w3.org/2000/svg">
<mask id="path-1-outside-1_30_499" maskUnits="userSpaceOnUse" x="-0.335693" y="0.129028" width="104" height="23" fill="black">
<rect fill="white" x="-0.335693" y="0.129028" width="104" height="23"/>
<path d="M15.3273 16.567C14.4593 17.745 13.2916 18.892 11.8243 20.008C10.357 21.1034 8.74497 21.651 6.98831 21.651C5.12831 21.651 3.60931 21.124 2.43131 20.07C1.25331 18.9954 0.664307 17.4144 0.664307 15.327C0.664307 13.901 0.912307 12.289 1.40831 10.491C1.90431 8.69303 2.48297 7.1327 3.14431 5.81003C3.82631 4.4667 4.61164 3.3507 5.50031 2.46203C6.40964 1.57336 7.31897 1.12903 8.22831 1.12903C9.11697 1.12903 9.79897 1.44936 10.2743 2.09003C10.7703 2.73069 11.0183 3.52636 11.0183 4.47703C11.0183 4.82836 10.946 5.19003 10.8013 5.56203C10.6773 5.91336 10.5326 6.21303 10.3673 6.46103C10.202 6.70903 10.078 6.83303 9.99531 6.83303C9.82997 6.83303 9.74731 6.74003 9.74731 6.55403C9.74731 6.49203 9.77831 6.3577 9.84031 6.15103C9.92297 5.9237 9.96431 5.7377 9.96431 5.59303C9.96431 5.07636 9.90231 4.5907 9.77831 4.13603C9.67497 3.74336 9.46831 3.42303 9.15831 3.17503C8.84831 2.90636 8.50731 2.77203 8.13531 2.77203C6.64731 2.77203 5.25231 4.20836 3.95031 7.08103C3.43364 8.23836 2.99964 9.54036 2.64831 10.987C2.29697 12.4337 2.12131 13.8287 2.12131 15.172C2.12131 16.102 2.30731 16.9494 2.67931 17.714C3.07197 18.4787 3.61964 19.0884 4.32231 19.543C5.04564 19.9977 5.88264 20.225 6.83331 20.225C8.34197 20.225 9.70597 19.8634 10.9253 19.14C12.1653 18.4167 13.3846 17.4867 14.5833 16.35C14.6246 16.3087 14.7693 16.0814 15.0173 15.668C15.2653 15.234 15.4513 15.017 15.5753 15.017C15.6993 15.017 15.782 15.048 15.8233 15.11C15.8646 15.172 15.8853 15.2857 15.8853 15.451C15.8853 15.6577 15.6993 16.0297 15.3273 16.567Z"/>
<path d="M20.4997 21.217C19.115 21.217 18.092 20.8347 17.4307 20.07C16.7694 19.3054 16.4387 18.3547 16.4387 17.218C16.4387 16.226 16.6144 14.9964 16.9657 13.529C17.3377 12.0617 17.8544 10.7494 18.5157 9.59203C18.557 9.50936 18.7224 9.2097 19.0117 8.69303C19.3217 8.1557 19.6627 7.7527 20.0347 7.48403C20.4067 7.1947 20.7994 7.05003 21.2127 7.05003C21.3987 7.05003 21.564 7.1017 21.7087 7.20503C21.874 7.2877 21.9567 7.40136 21.9567 7.54603C21.9567 7.58736 21.8947 7.6907 21.7707 7.85603C21.6674 8.0007 21.5847 8.11436 21.5227 8.19703C20.82 9.04436 20.2517 9.88136 19.8177 10.708C19.239 11.762 18.7844 12.8057 18.4537 13.839C18.1437 14.8724 17.9887 15.9987 17.9887 17.218C17.9887 18.8507 18.9807 19.667 20.9647 19.667C21.8947 19.667 22.7524 19.3984 23.5377 18.861C24.3437 18.3237 24.9844 17.6727 25.4597 16.908C25.935 16.1227 26.1727 15.4097 26.1727 14.769C26.1727 14.0457 25.935 13.4154 25.4597 12.878C24.9844 12.3407 24.3334 11.7724 23.5067 11.173C22.9694 10.7804 22.5767 10.46 22.3287 10.212C22.0807 9.96403 21.9567 9.75736 21.9567 9.59203C21.9567 9.34403 22.1324 9.1477 22.4837 9.00303C22.835 8.8377 23.2484 8.75503 23.7237 8.75503C23.9924 8.75503 24.168 8.7757 24.2507 8.81703C24.3334 8.8377 24.3747 8.88936 24.3747 8.97203C24.3747 9.01336 24.3334 9.0857 24.2507 9.18903C24.1887 9.2717 24.1577 9.34403 24.1577 9.40603C24.1577 9.46803 24.3644 9.6747 24.7777 10.026C25.6044 10.708 26.2967 11.4004 26.8547 12.103C27.4127 12.8057 27.6917 13.6324 27.6917 14.583C27.6917 15.389 27.392 16.319 26.7927 17.373C26.1934 18.427 25.346 19.3364 24.2507 20.101C23.1554 20.845 21.905 21.217 20.4997 21.217Z"/>
<path d="M42.3775 21.527C41.9641 21.527 41.5818 21.093 41.2305 20.225C40.8998 19.357 40.6931 18.458 40.6105 17.528C40.5278 16.6394 40.4658 14.8414 40.4245 12.134C40.4038 11.7 40.3935 11.266 40.3935 10.832C40.3935 10.3774 40.3831 9.99503 40.3625 9.68503C39.7631 11.111 38.9468 12.7334 37.9135 14.552C36.8801 16.3707 35.8365 17.931 34.7825 19.233C33.7491 20.535 32.9018 21.186 32.2405 21.186C31.5585 21.186 31.1038 20.8244 30.8765 20.101C30.6698 19.3777 30.5665 18.2307 30.5665 16.66C30.5665 15.1927 30.7525 13.529 31.1245 11.669C31.5171 9.80903 31.9615 8.39336 32.4575 7.42203C32.6641 6.98803 32.8398 6.6987 32.9845 6.55403C33.1291 6.38869 33.2945 6.30603 33.4805 6.30603C33.9971 6.30603 34.2555 6.40936 34.2555 6.61603C34.2555 6.71936 34.1521 6.95703 33.9455 7.32903C33.3875 8.36236 32.9018 9.60236 32.4885 11.049C32.0751 12.4957 31.8685 14.4384 31.8685 16.877C31.8685 18.5097 32.0958 19.326 32.5505 19.326C33.0878 19.326 33.8111 18.737 34.7205 17.559C35.6505 16.3604 36.5701 14.9344 37.4795 13.281C38.3888 11.6277 39.0811 10.1914 39.5565 8.97203C39.7218 8.5587 39.9078 7.91803 40.1145 7.05003C40.1765 6.6987 40.2385 6.4507 40.3005 6.30603C40.3625 6.1407 40.4348 6.05803 40.5175 6.05803C40.7448 6.05803 40.9928 6.15103 41.2615 6.33703C41.5301 6.52303 41.6645 6.71936 41.6645 6.92603C41.6645 7.91803 41.6955 9.62303 41.7575 12.041C41.8401 14.4384 41.9331 16.102 42.0365 17.032C42.1191 17.838 42.2638 18.4684 42.4705 18.923C42.6978 19.3777 42.9148 19.7394 43.1215 20.008C43.3281 20.256 43.4315 20.411 43.4315 20.473C43.4315 20.8037 43.3385 21.062 43.1525 21.248C42.9665 21.434 42.7081 21.527 42.3775 21.527Z"/>
<path d="M52.5772 21.403C51.6265 21.403 50.6965 21.2997 49.7872 21.093C48.8985 20.8864 48.1752 20.6177 47.6172 20.287C47.0592 19.9357 46.7802 19.574 46.7802 19.202C46.7802 18.706 46.9765 18.1274 47.3692 17.466C47.7619 16.784 48.3922 15.8127 49.2602 14.552C48.7229 14.552 48.0925 14.4694 47.3692 14.304C46.9972 14.2007 46.8112 13.9734 46.8112 13.622C46.8112 13.4774 46.9972 13.405 47.3692 13.405L50.1902 13.374C50.6655 12.4854 51.0892 11.545 51.4612 10.553C51.8539 9.54036 52.0502 8.85836 52.0502 8.50703C52.0502 8.3417 51.9779 8.25903 51.8332 8.25903C51.6059 8.25903 51.2545 8.3727 50.7792 8.60003C50.3039 8.82736 49.9835 8.98236 49.8182 9.06503C48.5575 9.66436 47.2865 9.96403 46.0052 9.96403C45.7365 9.96403 45.6022 9.87103 45.6022 9.68503C45.6022 9.54036 45.9019 9.37503 46.5012 9.18903C47.3279 8.92036 48.4129 8.41403 49.7562 7.67003C51.2855 6.8227 52.3395 6.39903 52.9182 6.39903C53.2489 6.39903 53.5072 6.47136 53.6932 6.61603C53.8792 6.7607 53.9722 6.9467 53.9722 7.17403C53.9722 7.6907 53.1352 9.72636 51.4612 13.281C51.9365 13.2604 52.7115 13.1157 53.7862 12.847C54.1375 12.7437 54.3649 12.692 54.4682 12.692C54.5302 12.692 54.5819 12.723 54.6232 12.785C54.6645 12.847 54.6852 12.909 54.6852 12.971C54.6852 13.3017 54.5199 13.5394 54.1892 13.684C53.3419 14.0767 52.1535 14.366 50.6242 14.552L49.9732 15.606C49.3945 16.5154 48.9502 17.2594 48.6402 17.838C48.3302 18.4167 48.1752 18.8404 48.1752 19.109C48.1752 19.3777 48.6815 19.5947 49.6942 19.76C50.7069 19.9047 51.7092 19.977 52.7012 19.977C54.1272 19.977 55.4189 19.76 56.5762 19.326C57.7335 18.892 58.6842 18.272 59.4282 17.466C59.5315 17.28 59.6349 16.8977 59.7382 16.319C59.7589 16.133 59.7899 15.9677 59.8312 15.823C59.8725 15.6577 59.9345 15.575 60.0172 15.575C60.1412 15.575 60.2239 15.73 60.2652 16.04C60.3272 16.3294 60.3582 16.7014 60.3582 17.156C60.3582 17.6727 59.9862 18.272 59.2422 18.954C58.4982 19.6154 57.5165 20.194 56.2972 20.69C55.0985 21.1654 53.8585 21.403 52.5772 21.403Z"/>
<path d="M66.5674 21.217C65.1827 21.217 64.1597 20.8347 63.4984 20.07C62.8371 19.3054 62.5064 18.3547 62.5064 17.218C62.5064 16.226 62.6821 14.9964 63.0334 13.529C63.4054 12.0617 63.9221 10.7494 64.5834 9.59203C64.6247 9.50936 64.7901 9.2097 65.0794 8.69303C65.3894 8.1557 65.7304 7.7527 66.1024 7.48403C66.4744 7.1947 66.8671 7.05003 67.2804 7.05003C67.4664 7.05003 67.6317 7.1017 67.7764 7.20503C67.9417 7.2877 68.0244 7.40136 68.0244 7.54603C68.0244 7.58736 67.9624 7.6907 67.8384 7.85603C67.7351 8.0007 67.6524 8.11436 67.5904 8.19703C66.8877 9.04436 66.3194 9.88136 65.8854 10.708C65.3067 11.762 64.8521 12.8057 64.5214 13.839C64.2114 14.8724 64.0564 15.9987 64.0564 17.218C64.0564 18.8507 65.0484 19.667 67.0324 19.667C67.9624 19.667 68.8201 19.3984 69.6054 18.861C70.4114 18.3237 71.0521 17.6727 71.5274 16.908C72.0027 16.1227 72.2404 15.4097 72.2404 14.769C72.2404 14.0457 72.0027 13.4154 71.5274 12.878C71.0521 12.3407 70.4011 11.7724 69.5744 11.173C69.0371 10.7804 68.6444 10.46 68.3964 10.212C68.1484 9.96403 68.0244 9.75736 68.0244 9.59203C68.0244 9.34403 68.2001 9.1477 68.5514 9.00303C68.9027 8.8377 69.3161 8.75503 69.7914 8.75503C70.0601 8.75503 70.2357 8.7757 70.3184 8.81703C70.4011 8.8377 70.4424 8.88936 70.4424 8.97203C70.4424 9.01336 70.4011 9.0857 70.3184 9.18903C70.2564 9.2717 70.2254 9.34403 70.2254 9.40603C70.2254 9.46803 70.4321 9.6747 70.8454 10.026C71.6721 10.708 72.3644 11.4004 72.9224 12.103C73.4804 12.8057 73.7594 13.6324 73.7594 14.583C73.7594 15.389 73.4597 16.319 72.8604 17.373C72.2611 18.427 71.4137 19.3364 70.3184 20.101C69.2231 20.845 67.9727 21.217 66.5674 21.217Z"/>
<path d="M86.1512 22.116C85.9445 22.116 85.7688 22.0644 85.6242 21.961C85.4795 21.8784 85.4072 21.7544 85.4072 21.589C85.4072 20.7417 85.4692 19.4294 85.5932 17.652C85.7172 15.7507 85.7792 14.1697 85.7792 12.909C85.7792 11.6897 85.7378 10.6977 85.6552 9.93303C85.5932 9.1477 85.4278 8.75503 85.1592 8.75503C84.4565 8.75503 83.6815 9.63336 82.8342 11.39C82.0075 13.126 81.0568 15.42 79.9822 18.272L79.5172 19.512C79.4345 19.7187 79.2898 19.884 79.0832 20.008C78.8972 20.132 78.7008 20.194 78.4942 20.194C78.2462 20.194 78.0808 20.1734 77.9982 20.132C77.9155 20.0907 77.8638 19.9667 77.8432 19.76L77.5952 17.218L77.1302 12.754C76.9855 10.9767 76.8098 9.4267 76.6032 8.10403C76.5412 7.79403 76.5102 7.55636 76.5102 7.39103C76.5102 7.08103 76.6445 6.83303 76.9132 6.64703C77.1818 6.44036 77.4918 6.33703 77.8432 6.33703C78.0498 6.33703 78.1945 6.83303 78.2772 7.82503C78.3805 8.81703 78.4838 10.4187 78.5872 12.63L78.7112 14.273C78.8765 16.3604 78.9695 17.683 78.9902 18.241C79.0522 18.117 79.1038 17.9827 79.1452 17.838C79.2072 17.6727 79.2795 17.497 79.3622 17.311C80.4782 14.4177 81.5218 12.01 82.4932 10.088C83.4852 8.14536 84.4358 7.17403 85.3452 7.17403C85.9858 7.17403 86.4198 7.7217 86.6472 8.81703C86.8952 9.8917 87.0502 11.2764 87.1122 12.971C87.1742 14.8517 87.2052 17.6004 87.2052 21.217C87.2052 21.465 87.1018 21.6717 86.8952 21.837C86.6885 22.023 86.4405 22.116 86.1512 22.116Z"/>
<path d="M103.076 13.56C103.076 13.932 102.797 14.7484 102.239 16.009C101.702 17.2697 100.875 18.4374 99.759 19.512C98.6636 20.5867 97.31 21.124 95.698 21.124C94.3753 21.124 93.2696 20.7107 92.381 19.884C91.4923 19.0574 91.048 17.7864 91.048 16.071C91.048 14.459 91.42 12.8677 92.164 11.297C92.908 9.7057 93.8793 8.41403 95.078 7.42203C96.2766 6.40936 97.5166 5.90303 98.798 5.90303C99.5626 5.90303 100.203 6.0787 100.72 6.43003C101.257 6.7607 101.526 7.24636 101.526 7.88703C101.526 8.61036 101.113 9.31303 100.286 9.99503C99.48 10.677 98.426 11.2764 97.124 11.793C95.822 12.3097 94.4786 12.6817 93.094 12.909C92.846 13.8597 92.722 14.7897 92.722 15.699C92.722 16.8977 93.001 17.8277 93.559 18.489C94.1376 19.1504 94.954 19.481 96.008 19.481C97.5993 19.481 98.891 18.9127 99.883 17.776C100.875 16.6394 101.702 15.358 102.363 13.932C102.404 13.8494 102.477 13.6944 102.58 13.467C102.683 13.219 102.776 13.095 102.859 13.095C103.004 13.095 103.076 13.25 103.076 13.56ZM98.426 7.17403C97.6406 7.17403 96.8863 7.43236 96.163 7.94903C95.4396 8.4657 94.83 9.0857 94.334 9.80903C93.8586 10.5324 93.5486 11.173 93.404 11.731C94.3546 11.6277 95.357 11.359 96.411 10.925C97.465 10.491 98.3433 10.0157 99.046 9.49903C99.7693 8.98236 100.131 8.5587 100.131 8.22803C100.131 7.89736 99.9553 7.63903 99.604 7.45303C99.2733 7.26703 98.8806 7.17403 98.426 7.17403Z"/>
</mask>
<path d="M15.3273 16.567C14.4593 17.745 13.2916 18.892 11.8243 20.008C10.357 21.1034 8.74497 21.651 6.98831 21.651C5.12831 21.651 3.60931 21.124 2.43131 20.07C1.25331 18.9954 0.664307 17.4144 0.664307 15.327C0.664307 13.901 0.912307 12.289 1.40831 10.491C1.90431 8.69303 2.48297 7.1327 3.14431 5.81003C3.82631 4.4667 4.61164 3.3507 5.50031 2.46203C6.40964 1.57336 7.31897 1.12903 8.22831 1.12903C9.11697 1.12903 9.79897 1.44936 10.2743 2.09003C10.7703 2.73069 11.0183 3.52636 11.0183 4.47703C11.0183 4.82836 10.946 5.19003 10.8013 5.56203C10.6773 5.91336 10.5326 6.21303 10.3673 6.46103C10.202 6.70903 10.078 6.83303 9.99531 6.83303C9.82997 6.83303 9.74731 6.74003 9.74731 6.55403C9.74731 6.49203 9.77831 6.3577 9.84031 6.15103C9.92297 5.9237 9.96431 5.7377 9.96431 5.59303C9.96431 5.07636 9.90231 4.5907 9.77831 4.13603C9.67497 3.74336 9.46831 3.42303 9.15831 3.17503C8.84831 2.90636 8.50731 2.77203 8.13531 2.77203C6.64731 2.77203 5.25231 4.20836 3.95031 7.08103C3.43364 8.23836 2.99964 9.54036 2.64831 10.987C2.29697 12.4337 2.12131 13.8287 2.12131 15.172C2.12131 16.102 2.30731 16.9494 2.67931 17.714C3.07197 18.4787 3.61964 19.0884 4.32231 19.543C5.04564 19.9977 5.88264 20.225 6.83331 20.225C8.34197 20.225 9.70597 19.8634 10.9253 19.14C12.1653 18.4167 13.3846 17.4867 14.5833 16.35C14.6246 16.3087 14.7693 16.0814 15.0173 15.668C15.2653 15.234 15.4513 15.017 15.5753 15.017C15.6993 15.017 15.782 15.048 15.8233 15.11C15.8646 15.172 15.8853 15.2857 15.8853 15.451C15.8853 15.6577 15.6993 16.0297 15.3273 16.567Z" fill="white"/>
<path d="M20.4997 21.217C19.115 21.217 18.092 20.8347 17.4307 20.07C16.7694 19.3054 16.4387 18.3547 16.4387 17.218C16.4387 16.226 16.6144 14.9964 16.9657 13.529C17.3377 12.0617 17.8544 10.7494 18.5157 9.59203C18.557 9.50936 18.7224 9.2097 19.0117 8.69303C19.3217 8.1557 19.6627 7.7527 20.0347 7.48403C20.4067 7.1947 20.7994 7.05003 21.2127 7.05003C21.3987 7.05003 21.564 7.1017 21.7087 7.20503C21.874 7.2877 21.9567 7.40136 21.9567 7.54603C21.9567 7.58736 21.8947 7.6907 21.7707 7.85603C21.6674 8.0007 21.5847 8.11436 21.5227 8.19703C20.82 9.04436 20.2517 9.88136 19.8177 10.708C19.239 11.762 18.7844 12.8057 18.4537 13.839C18.1437 14.8724 17.9887 15.9987 17.9887 17.218C17.9887 18.8507 18.9807 19.667 20.9647 19.667C21.8947 19.667 22.7524 19.3984 23.5377 18.861C24.3437 18.3237 24.9844 17.6727 25.4597 16.908C25.935 16.1227 26.1727 15.4097 26.1727 14.769C26.1727 14.0457 25.935 13.4154 25.4597 12.878C24.9844 12.3407 24.3334 11.7724 23.5067 11.173C22.9694 10.7804 22.5767 10.46 22.3287 10.212C22.0807 9.96403 21.9567 9.75736 21.9567 9.59203C21.9567 9.34403 22.1324 9.1477 22.4837 9.00303C22.835 8.8377 23.2484 8.75503 23.7237 8.75503C23.9924 8.75503 24.168 8.7757 24.2507 8.81703C24.3334 8.8377 24.3747 8.88936 24.3747 8.97203C24.3747 9.01336 24.3334 9.0857 24.2507 9.18903C24.1887 9.2717 24.1577 9.34403 24.1577 9.40603C24.1577 9.46803 24.3644 9.6747 24.7777 10.026C25.6044 10.708 26.2967 11.4004 26.8547 12.103C27.4127 12.8057 27.6917 13.6324 27.6917 14.583C27.6917 15.389 27.392 16.319 26.7927 17.373C26.1934 18.427 25.346 19.3364 24.2507 20.101C23.1554 20.845 21.905 21.217 20.4997 21.217Z" fill="white"/>
<path d="M42.3775 21.527C41.9641 21.527 41.5818 21.093 41.2305 20.225C40.8998 19.357 40.6931 18.458 40.6105 17.528C40.5278 16.6394 40.4658 14.8414 40.4245 12.134C40.4038 11.7 40.3935 11.266 40.3935 10.832C40.3935 10.3774 40.3831 9.99503 40.3625 9.68503C39.7631 11.111 38.9468 12.7334 37.9135 14.552C36.8801 16.3707 35.8365 17.931 34.7825 19.233C33.7491 20.535 32.9018 21.186 32.2405 21.186C31.5585 21.186 31.1038 20.8244 30.8765 20.101C30.6698 19.3777 30.5665 18.2307 30.5665 16.66C30.5665 15.1927 30.7525 13.529 31.1245 11.669C31.5171 9.80903 31.9615 8.39336 32.4575 7.42203C32.6641 6.98803 32.8398 6.6987 32.9845 6.55403C33.1291 6.38869 33.2945 6.30603 33.4805 6.30603C33.9971 6.30603 34.2555 6.40936 34.2555 6.61603C34.2555 6.71936 34.1521 6.95703 33.9455 7.32903C33.3875 8.36236 32.9018 9.60236 32.4885 11.049C32.0751 12.4957 31.8685 14.4384 31.8685 16.877C31.8685 18.5097 32.0958 19.326 32.5505 19.326C33.0878 19.326 33.8111 18.737 34.7205 17.559C35.6505 16.3604 36.5701 14.9344 37.4795 13.281C38.3888 11.6277 39.0811 10.1914 39.5565 8.97203C39.7218 8.5587 39.9078 7.91803 40.1145 7.05003C40.1765 6.6987 40.2385 6.4507 40.3005 6.30603C40.3625 6.1407 40.4348 6.05803 40.5175 6.05803C40.7448 6.05803 40.9928 6.15103 41.2615 6.33703C41.5301 6.52303 41.6645 6.71936 41.6645 6.92603C41.6645 7.91803 41.6955 9.62303 41.7575 12.041C41.8401 14.4384 41.9331 16.102 42.0365 17.032C42.1191 17.838 42.2638 18.4684 42.4705 18.923C42.6978 19.3777 42.9148 19.7394 43.1215 20.008C43.3281 20.256 43.4315 20.411 43.4315 20.473C43.4315 20.8037 43.3385 21.062 43.1525 21.248C42.9665 21.434 42.7081 21.527 42.3775 21.527Z" fill="white"/>
<path d="M52.5772 21.403C51.6265 21.403 50.6965 21.2997 49.7872 21.093C48.8985 20.8864 48.1752 20.6177 47.6172 20.287C47.0592 19.9357 46.7802 19.574 46.7802 19.202C46.7802 18.706 46.9765 18.1274 47.3692 17.466C47.7619 16.784 48.3922 15.8127 49.2602 14.552C48.7229 14.552 48.0925 14.4694 47.3692 14.304C46.9972 14.2007 46.8112 13.9734 46.8112 13.622C46.8112 13.4774 46.9972 13.405 47.3692 13.405L50.1902 13.374C50.6655 12.4854 51.0892 11.545 51.4612 10.553C51.8539 9.54036 52.0502 8.85836 52.0502 8.50703C52.0502 8.3417 51.9779 8.25903 51.8332 8.25903C51.6059 8.25903 51.2545 8.3727 50.7792 8.60003C50.3039 8.82736 49.9835 8.98236 49.8182 9.06503C48.5575 9.66436 47.2865 9.96403 46.0052 9.96403C45.7365 9.96403 45.6022 9.87103 45.6022 9.68503C45.6022 9.54036 45.9019 9.37503 46.5012 9.18903C47.3279 8.92036 48.4129 8.41403 49.7562 7.67003C51.2855 6.8227 52.3395 6.39903 52.9182 6.39903C53.2489 6.39903 53.5072 6.47136 53.6932 6.61603C53.8792 6.7607 53.9722 6.9467 53.9722 7.17403C53.9722 7.6907 53.1352 9.72636 51.4612 13.281C51.9365 13.2604 52.7115 13.1157 53.7862 12.847C54.1375 12.7437 54.3649 12.692 54.4682 12.692C54.5302 12.692 54.5819 12.723 54.6232 12.785C54.6645 12.847 54.6852 12.909 54.6852 12.971C54.6852 13.3017 54.5199 13.5394 54.1892 13.684C53.3419 14.0767 52.1535 14.366 50.6242 14.552L49.9732 15.606C49.3945 16.5154 48.9502 17.2594 48.6402 17.838C48.3302 18.4167 48.1752 18.8404 48.1752 19.109C48.1752 19.3777 48.6815 19.5947 49.6942 19.76C50.7069 19.9047 51.7092 19.977 52.7012 19.977C54.1272 19.977 55.4189 19.76 56.5762 19.326C57.7335 18.892 58.6842 18.272 59.4282 17.466C59.5315 17.28 59.6349 16.8977 59.7382 16.319C59.7589 16.133 59.7899 15.9677 59.8312 15.823C59.8725 15.6577 59.9345 15.575 60.0172 15.575C60.1412 15.575 60.2239 15.73 60.2652 16.04C60.3272 16.3294 60.3582 16.7014 60.3582 17.156C60.3582 17.6727 59.9862 18.272 59.2422 18.954C58.4982 19.6154 57.5165 20.194 56.2972 20.69C55.0985 21.1654 53.8585 21.403 52.5772 21.403Z" fill="white"/>
<path d="M66.5674 21.217C65.1827 21.217 64.1597 20.8347 63.4984 20.07C62.8371 19.3054 62.5064 18.3547 62.5064 17.218C62.5064 16.226 62.6821 14.9964 63.0334 13.529C63.4054 12.0617 63.9221 10.7494 64.5834 9.59203C64.6247 9.50936 64.7901 9.2097 65.0794 8.69303C65.3894 8.1557 65.7304 7.7527 66.1024 7.48403C66.4744 7.1947 66.8671 7.05003 67.2804 7.05003C67.4664 7.05003 67.6317 7.1017 67.7764 7.20503C67.9417 7.2877 68.0244 7.40136 68.0244 7.54603C68.0244 7.58736 67.9624 7.6907 67.8384 7.85603C67.7351 8.0007 67.6524 8.11436 67.5904 8.19703C66.8877 9.04436 66.3194 9.88136 65.8854 10.708C65.3067 11.762 64.8521 12.8057 64.5214 13.839C64.2114 14.8724 64.0564 15.9987 64.0564 17.218C64.0564 18.8507 65.0484 19.667 67.0324 19.667C67.9624 19.667 68.8201 19.3984 69.6054 18.861C70.4114 18.3237 71.0521 17.6727 71.5274 16.908C72.0027 16.1227 72.2404 15.4097 72.2404 14.769C72.2404 14.0457 72.0027 13.4154 71.5274 12.878C71.0521 12.3407 70.4011 11.7724 69.5744 11.173C69.0371 10.7804 68.6444 10.46 68.3964 10.212C68.1484 9.96403 68.0244 9.75736 68.0244 9.59203C68.0244 9.34403 68.2001 9.1477 68.5514 9.00303C68.9027 8.8377 69.3161 8.75503 69.7914 8.75503C70.0601 8.75503 70.2357 8.7757 70.3184 8.81703C70.4011 8.8377 70.4424 8.88936 70.4424 8.97203C70.4424 9.01336 70.4011 9.0857 70.3184 9.18903C70.2564 9.2717 70.2254 9.34403 70.2254 9.40603C70.2254 9.46803 70.4321 9.6747 70.8454 10.026C71.6721 10.708 72.3644 11.4004 72.9224 12.103C73.4804 12.8057 73.7594 13.6324 73.7594 14.583C73.7594 15.389 73.4597 16.319 72.8604 17.373C72.2611 18.427 71.4137 19.3364 70.3184 20.101C69.2231 20.845 67.9727 21.217 66.5674 21.217Z" fill="white"/>
<path d="M86.1512 22.116C85.9445 22.116 85.7688 22.0644 85.6242 21.961C85.4795 21.8784 85.4072 21.7544 85.4072 21.589C85.4072 20.7417 85.4692 19.4294 85.5932 17.652C85.7172 15.7507 85.7792 14.1697 85.7792 12.909C85.7792 11.6897 85.7378 10.6977 85.6552 9.93303C85.5932 9.1477 85.4278 8.75503 85.1592 8.75503C84.4565 8.75503 83.6815 9.63336 82.8342 11.39C82.0075 13.126 81.0568 15.42 79.9822 18.272L79.5172 19.512C79.4345 19.7187 79.2898 19.884 79.0832 20.008C78.8972 20.132 78.7008 20.194 78.4942 20.194C78.2462 20.194 78.0808 20.1734 77.9982 20.132C77.9155 20.0907 77.8638 19.9667 77.8432 19.76L77.5952 17.218L77.1302 12.754C76.9855 10.9767 76.8098 9.4267 76.6032 8.10403C76.5412 7.79403 76.5102 7.55636 76.5102 7.39103C76.5102 7.08103 76.6445 6.83303 76.9132 6.64703C77.1818 6.44036 77.4918 6.33703 77.8432 6.33703C78.0498 6.33703 78.1945 6.83303 78.2772 7.82503C78.3805 8.81703 78.4838 10.4187 78.5872 12.63L78.7112 14.273C78.8765 16.3604 78.9695 17.683 78.9902 18.241C79.0522 18.117 79.1038 17.9827 79.1452 17.838C79.2072 17.6727 79.2795 17.497 79.3622 17.311C80.4782 14.4177 81.5218 12.01 82.4932 10.088C83.4852 8.14536 84.4358 7.17403 85.3452 7.17403C85.9858 7.17403 86.4198 7.7217 86.6472 8.81703C86.8952 9.8917 87.0502 11.2764 87.1122 12.971C87.1742 14.8517 87.2052 17.6004 87.2052 21.217C87.2052 21.465 87.1018 21.6717 86.8952 21.837C86.6885 22.023 86.4405 22.116 86.1512 22.116Z" fill="white"/>
<path d="M103.076 13.56C103.076 13.932 102.797 14.7484 102.239 16.009C101.702 17.2697 100.875 18.4374 99.759 19.512C98.6636 20.5867 97.31 21.124 95.698 21.124C94.3753 21.124 93.2696 20.7107 92.381 19.884C91.4923 19.0574 91.048 17.7864 91.048 16.071C91.048 14.459 91.42 12.8677 92.164 11.297C92.908 9.7057 93.8793 8.41403 95.078 7.42203C96.2766 6.40936 97.5166 5.90303 98.798 5.90303C99.5626 5.90303 100.203 6.0787 100.72 6.43003C101.257 6.7607 101.526 7.24636 101.526 7.88703C101.526 8.61036 101.113 9.31303 100.286 9.99503C99.48 10.677 98.426 11.2764 97.124 11.793C95.822 12.3097 94.4786 12.6817 93.094 12.909C92.846 13.8597 92.722 14.7897 92.722 15.699C92.722 16.8977 93.001 17.8277 93.559 18.489C94.1376 19.1504 94.954 19.481 96.008 19.481C97.5993 19.481 98.891 18.9127 99.883 17.776C100.875 16.6394 101.702 15.358 102.363 13.932C102.404 13.8494 102.477 13.6944 102.58 13.467C102.683 13.219 102.776 13.095 102.859 13.095C103.004 13.095 103.076 13.25 103.076 13.56ZM98.426 7.17403C97.6406 7.17403 96.8863 7.43236 96.163 7.94903C95.4396 8.4657 94.83 9.0857 94.334 9.80903C93.8586 10.5324 93.5486 11.173 93.404 11.731C94.3546 11.6277 95.357 11.359 96.411 10.925C97.465 10.491 98.3433 10.0157 99.046 9.49903C99.7693 8.98236 100.131 8.5587 100.131 8.22803C100.131 7.89736 99.9553 7.63903 99.604 7.45303C99.2733 7.26703 98.8806 7.17403 98.426 7.17403Z" fill="white"/>
<path d="M15.3273 16.567C14.4593 17.745 13.2916 18.892 11.8243 20.008C10.357 21.1034 8.74497 21.651 6.98831 21.651C5.12831 21.651 3.60931 21.124 2.43131 20.07C1.25331 18.9954 0.664307 17.4144 0.664307 15.327C0.664307 13.901 0.912307 12.289 1.40831 10.491C1.90431 8.69303 2.48297 7.1327 3.14431 5.81003C3.82631 4.4667 4.61164 3.3507 5.50031 2.46203C6.40964 1.57336 7.31897 1.12903 8.22831 1.12903C9.11697 1.12903 9.79897 1.44936 10.2743 2.09003C10.7703 2.73069 11.0183 3.52636 11.0183 4.47703C11.0183 4.82836 10.946 5.19003 10.8013 5.56203C10.6773 5.91336 10.5326 6.21303 10.3673 6.46103C10.202 6.70903 10.078 6.83303 9.99531 6.83303C9.82997 6.83303 9.74731 6.74003 9.74731 6.55403C9.74731 6.49203 9.77831 6.3577 9.84031 6.15103C9.92297 5.9237 9.96431 5.7377 9.96431 5.59303C9.96431 5.07636 9.90231 4.5907 9.77831 4.13603C9.67497 3.74336 9.46831 3.42303 9.15831 3.17503C8.84831 2.90636 8.50731 2.77203 8.13531 2.77203C6.64731 2.77203 5.25231 4.20836 3.95031 7.08103C3.43364 8.23836 2.99964 9.54036 2.64831 10.987C2.29697 12.4337 2.12131 13.8287 2.12131 15.172C2.12131 16.102 2.30731 16.9494 2.67931 17.714C3.07197 18.4787 3.61964 19.0884 4.32231 19.543C5.04564 19.9977 5.88264 20.225 6.83331 20.225C8.34197 20.225 9.70597 19.8634 10.9253 19.14C12.1653 18.4167 13.3846 17.4867 14.5833 16.35C14.6246 16.3087 14.7693 16.0814 15.0173 15.668C15.2653 15.234 15.4513 15.017 15.5753 15.017C15.6993 15.017 15.782 15.048 15.8233 15.11C15.8646 15.172 15.8853 15.2857 15.8853 15.451C15.8853 15.6577 15.6993 16.0297 15.3273 16.567Z" stroke="white" stroke-width="0.6" mask="url(#path-1-outside-1_30_499)"/>
<path d="M20.4997 21.217C19.115 21.217 18.092 20.8347 17.4307 20.07C16.7694 19.3054 16.4387 18.3547 16.4387 17.218C16.4387 16.226 16.6144 14.9964 16.9657 13.529C17.3377 12.0617 17.8544 10.7494 18.5157 9.59203C18.557 9.50936 18.7224 9.2097 19.0117 8.69303C19.3217 8.1557 19.6627 7.7527 20.0347 7.48403C20.4067 7.1947 20.7994 7.05003 21.2127 7.05003C21.3987 7.05003 21.564 7.1017 21.7087 7.20503C21.874 7.2877 21.9567 7.40136 21.9567 7.54603C21.9567 7.58736 21.8947 7.6907 21.7707 7.85603C21.6674 8.0007 21.5847 8.11436 21.5227 8.19703C20.82 9.04436 20.2517 9.88136 19.8177 10.708C19.239 11.762 18.7844 12.8057 18.4537 13.839C18.1437 14.8724 17.9887 15.9987 17.9887 17.218C17.9887 18.8507 18.9807 19.667 20.9647 19.667C21.8947 19.667 22.7524 19.3984 23.5377 18.861C24.3437 18.3237 24.9844 17.6727 25.4597 16.908C25.935 16.1227 26.1727 15.4097 26.1727 14.769C26.1727 14.0457 25.935 13.4154 25.4597 12.878C24.9844 12.3407 24.3334 11.7724 23.5067 11.173C22.9694 10.7804 22.5767 10.46 22.3287 10.212C22.0807 9.96403 21.9567 9.75736 21.9567 9.59203C21.9567 9.34403 22.1324 9.1477 22.4837 9.00303C22.835 8.8377 23.2484 8.75503 23.7237 8.75503C23.9924 8.75503 24.168 8.7757 24.2507 8.81703C24.3334 8.8377 24.3747 8.88936 24.3747 8.97203C24.3747 9.01336 24.3334 9.0857 24.2507 9.18903C24.1887 9.2717 24.1577 9.34403 24.1577 9.40603C24.1577 9.46803 24.3644 9.6747 24.7777 10.026C25.6044 10.708 26.2967 11.4004 26.8547 12.103C27.4127 12.8057 27.6917 13.6324 27.6917 14.583C27.6917 15.389 27.392 16.319 26.7927 17.373C26.1934 18.427 25.346 19.3364 24.2507 20.101C23.1554 20.845 21.905 21.217 20.4997 21.217Z" stroke="white" stroke-width="0.6" mask="url(#path-1-outside-1_30_499)"/>
<path d="M42.3775 21.527C41.9641 21.527 41.5818 21.093 41.2305 20.225C40.8998 19.357 40.6931 18.458 40.6105 17.528C40.5278 16.6394 40.4658 14.8414 40.4245 12.134C40.4038 11.7 40.3935 11.266 40.3935 10.832C40.3935 10.3774 40.3831 9.99503 40.3625 9.68503C39.7631 11.111 38.9468 12.7334 37.9135 14.552C36.8801 16.3707 35.8365 17.931 34.7825 19.233C33.7491 20.535 32.9018 21.186 32.2405 21.186C31.5585 21.186 31.1038 20.8244 30.8765 20.101C30.6698 19.3777 30.5665 18.2307 30.5665 16.66C30.5665 15.1927 30.7525 13.529 31.1245 11.669C31.5171 9.80903 31.9615 8.39336 32.4575 7.42203C32.6641 6.98803 32.8398 6.6987 32.9845 6.55403C33.1291 6.38869 33.2945 6.30603 33.4805 6.30603C33.9971 6.30603 34.2555 6.40936 34.2555 6.61603C34.2555 6.71936 34.1521 6.95703 33.9455 7.32903C33.3875 8.36236 32.9018 9.60236 32.4885 11.049C32.0751 12.4957 31.8685 14.4384 31.8685 16.877C31.8685 18.5097 32.0958 19.326 32.5505 19.326C33.0878 19.326 33.8111 18.737 34.7205 17.559C35.6505 16.3604 36.5701 14.9344 37.4795 13.281C38.3888 11.6277 39.0811 10.1914 39.5565 8.97203C39.7218 8.5587 39.9078 7.91803 40.1145 7.05003C40.1765 6.6987 40.2385 6.4507 40.3005 6.30603C40.3625 6.1407 40.4348 6.05803 40.5175 6.05803C40.7448 6.05803 40.9928 6.15103 41.2615 6.33703C41.5301 6.52303 41.6645 6.71936 41.6645 6.92603C41.6645 7.91803 41.6955 9.62303 41.7575 12.041C41.8401 14.4384 41.9331 16.102 42.0365 17.032C42.1191 17.838 42.2638 18.4684 42.4705 18.923C42.6978 19.3777 42.9148 19.7394 43.1215 20.008C43.3281 20.256 43.4315 20.411 43.4315 20.473C43.4315 20.8037 43.3385 21.062 43.1525 21.248C42.9665 21.434 42.7081 21.527 42.3775 21.527Z" stroke="white" stroke-width="0.6" mask="url(#path-1-outside-1_30_499)"/>
<path d="M52.5772 21.403C51.6265 21.403 50.6965 21.2997 49.7872 21.093C48.8985 20.8864 48.1752 20.6177 47.6172 20.287C47.0592 19.9357 46.7802 19.574 46.7802 19.202C46.7802 18.706 46.9765 18.1274 47.3692 17.466C47.7619 16.784 48.3922 15.8127 49.2602 14.552C48.7229 14.552 48.0925 14.4694 47.3692 14.304C46.9972 14.2007 46.8112 13.9734 46.8112 13.622C46.8112 13.4774 46.9972 13.405 47.3692 13.405L50.1902 13.374C50.6655 12.4854 51.0892 11.545 51.4612 10.553C51.8539 9.54036 52.0502 8.85836 52.0502 8.50703C52.0502 8.3417 51.9779 8.25903 51.8332 8.25903C51.6059 8.25903 51.2545 8.3727 50.7792 8.60003C50.3039 8.82736 49.9835 8.98236 49.8182 9.06503C48.5575 9.66436 47.2865 9.96403 46.0052 9.96403C45.7365 9.96403 45.6022 9.87103 45.6022 9.68503C45.6022 9.54036 45.9019 9.37503 46.5012 9.18903C47.3279 8.92036 48.4129 8.41403 49.7562 7.67003C51.2855 6.8227 52.3395 6.39903 52.9182 6.39903C53.2489 6.39903 53.5072 6.47136 53.6932 6.61603C53.8792 6.7607 53.9722 6.9467 53.9722 7.17403C53.9722 7.6907 53.1352 9.72636 51.4612 13.281C51.9365 13.2604 52.7115 13.1157 53.7862 12.847C54.1375 12.7437 54.3649 12.692 54.4682 12.692C54.5302 12.692 54.5819 12.723 54.6232 12.785C54.6645 12.847 54.6852 12.909 54.6852 12.971C54.6852 13.3017 54.5199 13.5394 54.1892 13.684C53.3419 14.0767 52.1535 14.366 50.6242 14.552L49.9732 15.606C49.3945 16.5154 48.9502 17.2594 48.6402 17.838C48.3302 18.4167 48.1752 18.8404 48.1752 19.109C48.1752 19.3777 48.6815 19.5947 49.6942 19.76C50.7069 19.9047 51.7092 19.977 52.7012 19.977C54.1272 19.977 55.4189 19.76 56.5762 19.326C57.7335 18.892 58.6842 18.272 59.4282 17.466C59.5315 17.28 59.6349 16.8977 59.7382 16.319C59.7589 16.133 59.7899 15.9677 59.8312 15.823C59.8725 15.6577 59.9345 15.575 60.0172 15.575C60.1412 15.575 60.2239 15.73 60.2652 16.04C60.3272 16.3294 60.3582 16.7014 60.3582 17.156C60.3582 17.6727 59.9862 18.272 59.2422 18.954C58.4982 19.6154 57.5165 20.194 56.2972 20.69C55.0985 21.1654 53.8585 21.403 52.5772 21.403Z" stroke="white" stroke-width="0.6" mask="url(#path-1-outside-1_30_499)"/>
<path d="M66.5674 21.217C65.1827 21.217 64.1597 20.8347 63.4984 20.07C62.8371 19.3054 62.5064 18.3547 62.5064 17.218C62.5064 16.226 62.6821 14.9964 63.0334 13.529C63.4054 12.0617 63.9221 10.7494 64.5834 9.59203C64.6247 9.50936 64.7901 9.2097 65.0794 8.69303C65.3894 8.1557 65.7304 7.7527 66.1024 7.48403C66.4744 7.1947 66.8671 7.05003 67.2804 7.05003C67.4664 7.05003 67.6317 7.1017 67.7764 7.20503C67.9417 7.2877 68.0244 7.40136 68.0244 7.54603C68.0244 7.58736 67.9624 7.6907 67.8384 7.85603C67.7351 8.0007 67.6524 8.11436 67.5904 8.19703C66.8877 9.04436 66.3194 9.88136 65.8854 10.708C65.3067 11.762 64.8521 12.8057 64.5214 13.839C64.2114 14.8724 64.0564 15.9987 64.0564 17.218C64.0564 18.8507 65.0484 19.667 67.0324 19.667C67.9624 19.667 68.8201 19.3984 69.6054 18.861C70.4114 18.3237 71.0521 17.6727 71.5274 16.908C72.0027 16.1227 72.2404 15.4097 72.2404 14.769C72.2404 14.0457 72.0027 13.4154 71.5274 12.878C71.0521 12.3407 70.4011 11.7724 69.5744 11.173C69.0371 10.7804 68.6444 10.46 68.3964 10.212C68.1484 9.96403 68.0244 9.75736 68.0244 9.59203C68.0244 9.34403 68.2001 9.1477 68.5514 9.00303C68.9027 8.8377 69.3161 8.75503 69.7914 8.75503C70.0601 8.75503 70.2357 8.7757 70.3184 8.81703C70.4011 8.8377 70.4424 8.88936 70.4424 8.97203C70.4424 9.01336 70.4011 9.0857 70.3184 9.18903C70.2564 9.2717 70.2254 9.34403 70.2254 9.40603C70.2254 9.46803 70.4321 9.6747 70.8454 10.026C71.6721 10.708 72.3644 11.4004 72.9224 12.103C73.4804 12.8057 73.7594 13.6324 73.7594 14.583C73.7594 15.389 73.4597 16.319 72.8604 17.373C72.2611 18.427 71.4137 19.3364 70.3184 20.101C69.2231 20.845 67.9727 21.217 66.5674 21.217Z" stroke="white" stroke-width="0.6" mask="url(#path-1-outside-1_30_499)"/>
<path d="M86.1512 22.116C85.9445 22.116 85.7688 22.0644 85.6242 21.961C85.4795 21.8784 85.4072 21.7544 85.4072 21.589C85.4072 20.7417 85.4692 19.4294 85.5932 17.652C85.7172 15.7507 85.7792 14.1697 85.7792 12.909C85.7792 11.6897 85.7378 10.6977 85.6552 9.93303C85.5932 9.1477 85.4278 8.75503 85.1592 8.75503C84.4565 8.75503 83.6815 9.63336 82.8342 11.39C82.0075 13.126 81.0568 15.42 79.9822 18.272L79.5172 19.512C79.4345 19.7187 79.2898 19.884 79.0832 20.008C78.8972 20.132 78.7008 20.194 78.4942 20.194C78.2462 20.194 78.0808 20.1734 77.9982 20.132C77.9155 20.0907 77.8638 19.9667 77.8432 19.76L77.5952 17.218L77.1302 12.754C76.9855 10.9767 76.8098 9.4267 76.6032 8.10403C76.5412 7.79403 76.5102 7.55636 76.5102 7.39103C76.5102 7.08103 76.6445 6.83303 76.9132 6.64703C77.1818 6.44036 77.4918 6.33703 77.8432 6.33703C78.0498 6.33703 78.1945 6.83303 78.2772 7.82503C78.3805 8.81703 78.4838 10.4187 78.5872 12.63L78.7112 14.273C78.8765 16.3604 78.9695 17.683 78.9902 18.241C79.0522 18.117 79.1038 17.9827 79.1452 17.838C79.2072 17.6727 79.2795 17.497 79.3622 17.311C80.4782 14.4177 81.5218 12.01 82.4932 10.088C83.4852 8.14536 84.4358 7.17403 85.3452 7.17403C85.9858 7.17403 86.4198 7.7217 86.6472 8.81703C86.8952 9.8917 87.0502 11.2764 87.1122 12.971C87.1742 14.8517 87.2052 17.6004 87.2052 21.217C87.2052 21.465 87.1018 21.6717 86.8952 21.837C86.6885 22.023 86.4405 22.116 86.1512 22.116Z" stroke="white" stroke-width="0.6" mask="url(#path-1-outside-1_30_499)"/>
<path d="M103.076 13.56C103.076 13.932 102.797 14.7484 102.239 16.009C101.702 17.2697 100.875 18.4374 99.759 19.512C98.6636 20.5867 97.31 21.124 95.698 21.124C94.3753 21.124 93.2696 20.7107 92.381 19.884C91.4923 19.0574 91.048 17.7864 91.048 16.071C91.048 14.459 91.42 12.8677 92.164 11.297C92.908 9.7057 93.8793 8.41403 95.078 7.42203C96.2766 6.40936 97.5166 5.90303 98.798 5.90303C99.5626 5.90303 100.203 6.0787 100.72 6.43003C101.257 6.7607 101.526 7.24636 101.526 7.88703C101.526 8.61036 101.113 9.31303 100.286 9.99503C99.48 10.677 98.426 11.2764 97.124 11.793C95.822 12.3097 94.4786 12.6817 93.094 12.909C92.846 13.8597 92.722 14.7897 92.722 15.699C92.722 16.8977 93.001 17.8277 93.559 18.489C94.1376 19.1504 94.954 19.481 96.008 19.481C97.5993 19.481 98.891 18.9127 99.883 17.776C100.875 16.6394 101.702 15.358 102.363 13.932C102.404 13.8494 102.477 13.6944 102.58 13.467C102.683 13.219 102.776 13.095 102.859 13.095C103.004 13.095 103.076 13.25 103.076 13.56ZM98.426 7.17403C97.6406 7.17403 96.8863 7.43236 96.163 7.94903C95.4396 8.4657 94.83 9.0857 94.334 9.80903C93.8586 10.5324 93.5486 11.173 93.404 11.731C94.3546 11.6277 95.357 11.359 96.411 10.925C97.465 10.491 98.3433 10.0157 99.046 9.49903C99.7693 8.98236 100.131 8.5587 100.131 8.22803C100.131 7.89736 99.9553 7.63903 99.604 7.45303C99.2733 7.26703 98.8806 7.17403 98.426 7.17403Z" stroke="white" stroke-width="0.6" mask="url(#path-1-outside-1_30_499)"/>
</svg>
